<svg width="30px" height="30px" viewBox="0 0 60.601004 60.601004" version="1.1" xmlns="http://www.w3.org/2000/svg">
  <path d="m 47.203006,25.821126 c -1.42625,-0.39625 -2.9,-0.675 -4.41125,-0.83 l -2.7725,4.74625 -2.77375,-4.74625 c -1.5175,0.15375 -2.99625,0.4325 -4.4275,0.8325 -0.14,0.03875 -0.2775,0.0825 -0.41125,0.13125 -0.28,0.105 -0.51125,0.30625 -0.65875,0.5625 l -9.05375,15.68375 4.66375,0 5.3125,-7.31375 0,13.1025 16.92875,-0.0012 1.4525,-16.60375 c 0.2175,-2.48875 -1.35625,-4.86375 -3.84875,-5.56375" style="fill:#000000;fill-opacity:1;fill-rule:nonzero;stroke:none"/>
  <path d="m 40.011755,23.803626 c 2.34375,0 4.245,-1.90125 4.245,-4.245 l 0,-2.47625 -8.86875,0 -1.78125,2.1225 2.15875,0 0,0.35375 c 0,2.34375 1.90125,4.245 4.24625,4.245" style="fill:#000000;fill-opacity:1;fill-rule:nonzero;stroke:none"/>
  <path d="m 44.256755,16.021126 0.84125,-2.31125 -11.545,-1.62375 1.835,3.935 8.86875,0" style="fill:#000000;fill-opacity:1;fill-rule:nonzero;stroke:none"/>
  <path d="m 14.163004,45.738627 c 0,1.2425 1.00875,2.25 2.2525,2.25 l 12.22125,0 c 1.2425,0 2.25125,-1.0075 2.25125,-2.25 l 0,-2.57375 -16.725,0 0,2.57375" style="fill:#000000;fill-opacity:1;fill-rule:nonzero;stroke:none"/>
  <path d="m 11.591753,26.441126 c -1.24375,0 -2.2525003,1.0075 -2.2525003,2.2525 l 0,12.22 c 0,1.24375 1.0087503,2.25125 2.2525003,2.25125 l 2.57125,0 0,-16.72375 -2.57125,0" style="fill:#000000;fill-opacity:1;fill-rule:nonzero;stroke:none"/>
</svg>
